<?xml version="1.0" standalone="no"?>
<!DOCTYPE svg PUBLIC "-//W3C//DTD SVG 20010904//EN"
 "http://www.w3.org/TR/2001/REC-SVG-20010904/DTD/svg10.dtd">
<svg version="1.0" xmlns="http://www.w3.org/2000/svg"
 width="360.000000pt" height="360.000000pt" viewBox="0 0 360.000000 360.000000"
 preserveAspectRatio="xMidYMid meet">

<g transform="translate(0.000000,360.000000) scale(0.100000,-0.100000)"
fill="#000000" stroke="none">
<path d="M1490 2975 l0 -75 310 0 311 0 -3 73 -3 72 -307 3 -308 2 0 -75z"/>
<path d="M1180 2815 l0 -75 155 0 155 0 0 -235 0 -235 -80 0 -80 0 0 -235 0
-235 -155 0 -155 0 0 230 0 230 -75 0 -75 0 -2 -232 -3 -231 -77 2 -78 2 0
-80 0 -81 -80 0 -80 0 0 -75 0 -75 80 0 80 0 0 -75 0 -74 78 -3 77 -3 3 -312
2 -313 75 0 74 0 3 -77 3 -78 778 -3 777 -2 0 80 0 79 76 3 75 3 2 310 2 310
78 3 77 3 0 74 0 75 80 0 80 0 0 75 0 75 -80 0 -80 0 0 81 0 81 -77 -3 -78 -4
-2 230 -2 230 -67 7 c-38 4 -72 5 -76 2 -4 -3 -8 -108 -8 -235 l0 -229 -155 0
-155 0 0 235 0 235 -80 0 -80 0 0 235 0 235 155 0 155 0 0 75 0 75 -155 0
-155 0 0 -75 0 -75 -75 0 -75 0 0 -235 0 -235 75 0 75 0 0 -235 0 -235 -310 0
-310 0 0 235 0 235 75 0 75 0 0 235 0 235 -75 0 -75 0 0 75 0 75 -155 0 -155
0 0 -75z m1710 -1250 l0 -75 -1090 0 -1090 0 0 75 0 75 1090 0 1090 0 0 -75z
m-310 -545 l0 -310 -780 0 -780 0 0 310 0 310 780 0 780 0 0 -310z"/>
<path d="M1020 2500 l0 -230 75 0 75 0 0 230 0 230 -75 0 -75 0 0 -230z"/>
<path d="M2430 2500 l0 -230 75 0 75 0 0 230 0 230 -75 0 -75 0 0 -230z"/>
</g>
</svg>
